<svg width="136" height="27" viewBox="0 0 136 27" fill="none" xmlns="http://www.w3.org/2000/svg">
<path d="M15.792 15.876C14.336 16.576 12.88 17.08 11.032 17.08C7.336 17.08 5.292 14.98 5.292 11.844C5.292 8.708 7.28 6.552 10.976 6.552C12.908 6.552 14.336 7.056 15.792 7.84V3.668C14.448 2.772 12.516 2.296 10.444 2.296C4.312 2.296 0.756 6.132 0.756 11.816C0.756 17.64 4.312 21.308 10.472 21.308C12.6 21.308 14.56 20.86 15.792 20.048V15.876ZM24.2723 21.336C28.7243 21.336 31.3003 18.228 31.3003 13.832C31.3003 9.408 28.7243 6.384 24.2723 6.384C19.7923 6.384 17.1883 9.408 17.1883 13.832C17.1883 18.228 19.7923 21.336 24.2723 21.336ZM24.2723 10.024C26.3443 10.024 27.2403 11.676 27.2403 13.832C27.2403 15.988 26.3443 17.696 24.2723 17.696C22.1723 17.696 21.2483 15.988 21.2483 13.832C21.2483 11.676 22.1723 10.024 24.2723 10.024ZM36.8082 13.832C36.8082 11.368 37.7602 9.996 39.6362 9.996C41.0922 9.996 42.2402 10.976 42.2402 13.272V14.42C42.2402 16.688 40.9242 17.668 39.4682 17.668C37.7322 17.668 36.8082 16.408 36.8082 13.832ZM42.2402 21H46.4122V1.148H42.2402V9.184C41.4562 7.476 40.0562 6.412 38.0962 6.412C34.3722 6.412 32.6922 9.8 32.6922 13.832C32.6922 18.116 34.3442 21.28 37.8442 21.28C39.8042 21.28 41.3722 20.356 42.2402 18.452V21ZM48.5815 2.8C48.5815 4.34 49.6735 5.208 51.2135 5.208C52.7535 5.208 53.8455 4.34 53.8455 2.8C53.8455 1.26 52.7535 0.363999 51.2135 0.363999C49.6735 0.363999 48.5815 1.26 48.5815 2.8ZM49.1135 21H53.2855V6.692H49.1135V21ZM69.0528 12.432C69.0528 8.596 67.5688 6.384 64.4328 6.384C62.4448 6.384 60.9888 7.392 60.1488 9.156V6.692H55.9768V21H60.1488V13.048C60.1488 10.948 61.1848 9.94 62.7248 9.94C64.2368 9.94 64.8808 10.696 64.8808 12.432V21H69.0528V12.432ZM80.4388 19.46C80.4388 21.504 79.4308 22.988 76.4908 22.988C74.7268 22.988 73.1028 22.708 71.5068 22.092V25.872C73.0188 26.348 74.7548 26.628 76.8548 26.628C82.4548 26.628 84.5828 23.688 84.5828 19.292V6.692H80.4388V9.184C79.6548 7.476 78.2548 6.412 76.2948 6.412C72.5988 6.412 70.9188 9.66 70.9188 13.58C70.9188 17.696 72.5708 20.748 76.0428 20.748C78.0028 20.748 79.5708 19.824 80.4388 17.92V19.46ZM75.0068 13.58C75.0068 11.256 75.9588 9.968 77.8348 9.968C79.2908 9.968 80.4388 10.948 80.4388 13.16V13.916C80.4388 16.24 79.2068 17.248 77.6668 17.248C75.9308 17.248 75.0068 16.016 75.0068 13.58ZM86.1661 2.604V6.44H90.8141V21H95.2941V6.44H99.9421V2.604H86.1661ZM106.41 9.492C108.118 9.492 108.958 10.584 109.126 12.796H103.526C103.722 10.696 104.618 9.492 106.41 9.492ZM112.346 20.44V17.024C110.946 17.472 109.294 17.752 107.614 17.752C105.122 17.752 103.918 16.912 103.582 15.064H112.962V13.972C112.962 9.52 111.114 6.384 106.522 6.384C101.902 6.384 99.4656 9.548 99.4656 13.972C99.4656 18.564 101.93 21.28 107.502 21.28C109.21 21.28 111.058 20.972 112.346 20.44ZM125.819 16.772C125.819 14.476 124.587 13.048 120.723 12.292C118.735 11.844 118.259 11.452 118.259 10.808C118.259 10.108 118.875 9.688 120.107 9.688C121.675 9.688 123.355 10.192 125.203 10.976V7.448C124.055 6.832 122.179 6.384 120.163 6.384C116.607 6.384 114.535 7.98 114.535 10.752C114.535 12.992 115.795 14.56 119.575 15.26C121.395 15.68 121.983 16.072 121.983 16.772C121.983 17.5 121.339 17.976 120.079 17.976C118.203 17.976 116.019 17.248 114.731 16.604V20.16C115.879 20.776 117.783 21.308 120.051 21.308C124.167 21.308 125.819 19.516 125.819 16.772ZM132.681 15.764V10.192H135.621V6.692H132.681V3.724H128.537V6.692H126.829V10.192H128.537V16.24C128.537 19.18 129.881 21.168 133.269 21.168C134.333 21.168 135.005 21.056 135.621 20.888V17.22C135.257 17.304 134.837 17.388 134.361 17.388C133.241 17.388 132.681 16.8 132.681 15.764Z" fill="#172B4D"/>
</svg>
